PathFileType	4	(X/Y/Z)	Patient5_TMGait_0pt45_1_right_11.trc.trc
DataRate	CameraRate	NumFrames	NumMarkers	Units	OrigDataRate	OrigDataStartFrame	OrigNumFrames
64.814814814815	64.814814814815	4	32	mm	64.814814814815	71	       141
Frame#	Time	R.ASIS			L.ASIS			Chest			R.Shoulder			Neck			L.Shoulder			L.Elbow			L.Wrist			R.Elbow			R.Wrist			L.Thigh.Superior			L.Thigh.Lateral			L.Thigh.Inferior			L.Patella			L.Shank.Superior			L.Shank.Lateral			L.Shank.Inferior			L.Heel			L.Midfoot.Lateral			L.Midfoot.Superior			L.Toe			R.Thigh.Superior			R.Thigh.Lateral			R.Thigh.Inferior			R.Patella			R.Shank.Superior			R.Shank.Lateral			R.Shank.Inferior			R.Heel			R.Midfoot.Lateral			R.Midfoot.Superior			R.Toe			
		X1	Y1	Z1	X2	Y2	Z2	X3	Y3	Z3	X4	Y4	Z4	X5	Y5	Z5	X6	Y6	Z6	X7	Y7	Z7	X8	Y8	Z8	X9	Y9	Z9	X10	Y10	Z10	X11	Y11	Z11	X12	Y12	Z12	X13	Y13	Z13	X14	Y14	Z14	X15	Y15	Z15	X16	Y16	Z16	X17	Y17	Z17	X18	Y18	Z18	X19	Y19	Z19	X20	Y20	Z20	X21	Y21	Z21	X22	Y22	Z22	X23	Y23	Z23	X24	Y24	Z24	X25	Y25	Z25	X26	Y26	Z26	X27	Y27	Z27	X28	Y28	Z28	X29	Y29	Z29	X30	Y30	Z30	X31	Y31	Z31	X32	Y32	Z32	

71	19.150000000000	1054.086571340215	978.219212005329	571.838979895062	1080.683215797449	955.877146205441	331.981684239419	1155.149680027444	1430.378541601321	445.539592061678	1045.117752628044	1497.978192521589	603.231821286419	1033.655878639867	1555.344188539720	416.118211741603	1108.285768044283	1495.546272104499	243.021739073602	1021.360737092565	1182.348787130638	112.782553575240	1116.202000568228	909.266110501351	142.966907978136	963.056457165595	1180.237719141103	746.886354302696	1191.794656838487	1007.167234192674	698.219994652594	1137.532269309492	757.293057270057	324.555924506539	1087.111131412045	673.083007497269	280.068891440836	1163.685232194468	635.467783104499	355.848602870326	1189.161557625002	520.979915303351	367.626208208778	1154.047392237653	409.796308056233	380.380871780253	1109.947359488062	334.970531086513	292.751047079668	1135.171764464526	283.286988658253	382.307475725920	1026.119050645747	49.721811179698	370.339858393085	1116.464936753404	27.380906929854	311.557097454719	1211.997826082751	89.516557568023	360.198881383057	1320.116702067806	44.531978197080	365.170370328123	1041.670311388271	741.890143951562	600.368972603095	938.688673822383	677.130243976724	645.284980912256	1020.585975003644	609.273714793259	587.793020666581	998.628699101391	506.616719742136	618.643751791956	916.519452888682	418.969731688409	572.723612697682	816.171209058978	387.981902325498	645.737412978186	841.208787035466	300.598962189365	567.226560412607	632.430478434118	143.062333859315	524.273939527607	692.413436434922	77.291040579611	590.867199301137	814.202328816611	100.087638035320	576.895852673491	892.500918859294	41.527031213821	565.867019067401	
72	19.165428571429	1056.571452333034	981.195863692873	569.146666501688	1084.364242150231	957.170898768834	329.881351828294	1157.643008951358	1432.416475116641	444.252063410986	1044.995496824673	1500.246388987681	599.933849647484	1036.729837800046	1557.388816684921	412.583856032312	1114.635922805568	1497.595218352782	241.057447833448	1031.617633588890	1184.229329331464	108.755747532934	1128.238626112098	912.124760547923	141.020196219320	959.529061813181	1182.749509242578	742.267338507880	1188.483816190664	1009.381910368142	695.576067521226	1138.806348264540	756.888513910175	323.142025635197	1087.595927763587	673.296803458971	278.193994788211	1162.805898459210	634.824995441705	354.786239157111	1186.699310109731	520.073223438369	366.891846587285	1150.587734214490	409.355436329751	379.685417331711	1106.400894269625	334.613491084645	292.082198519489	1130.364036271442	283.095980847625	381.892480872891	1019.523859243332	49.638549906847	370.153638493461	1109.877517431128	27.456013008001	311.408637975277	1205.231900745942	89.678508677793	360.164097118921	1313.517532424505	44.825673606339	364.894779457099	1048.185174241982	745.870873498323	601.675103080433	946.899470297756	679.251336533905	646.688402355768	1031.399199666591	612.413730632204	591.295100009023	1010.459769275677	508.660606107701	622.745670900864	926.440691756039	421.192015038584	576.347348669853	824.951167557131	392.662502424874	649.410612267815	847.268266794659	305.066980038467	570.262557601966	634.163378374903	157.550423199263	527.253101216297	690.414549575520	87.429116750219	592.557031051018	813.365441045527	104.002476086471	579.128861282549	887.993532613391	41.157663194077	566.696132097143	
73	19.180857142857	1058.740398668304	983.967553807164	566.373549067774	1087.624530182663	958.282469067958	327.826559670219	1159.769116691774	1434.142799258890	443.056566862301	1044.541908742230	1502.155817811740	596.694973046258	1039.487437539166	1559.153472674845	409.233629729144	1120.592300032670	1499.360893456924	239.263880373720	1041.781022143233	1185.823606214866	104.879241662601	1140.107322194399	914.692427496298	139.189784263601	956.250835880894	1184.934812354296	737.983671956872	1185.120996468466	1011.103513987839	692.887439710347	1139.655370952473	756.594871859253	322.138453436664	1087.900548980208	673.560683530466	276.419020237989	1161.623607315775	634.179513844389	353.853033519693	1183.909755211097	519.125529247432	366.072366737646	1146.867079645218	408.875714730362	378.894288663219	1102.556010641922	334.202674845817	291.339605037932	1125.380972018926	282.868652870422	381.387155977867	1012.844332255208	49.611994713102	369.966789498280	1103.216545401870	27.478574064455	311.290572727627	1198.432845366965	89.725639567304	360.170635569828	1306.843085719243	44.997595108295	364.760682687449	1054.520888619412	749.846893055390	602.840209934184	955.171004814535	681.387647844528	648.213176862668	1042.119690971500	615.708843514529	594.619686086989	1022.325144453278	510.943911033194	626.642375397118	936.582920656212	423.724986403414	579.969853826002	834.216279999698	397.543014457182	653.282294205948	853.758473971244	309.849455721040	573.374883593823	636.966101078185	172.612590425517	530.717932094753	689.130392668457	98.261059448690	594.563773360106	812.935766589597	108.448321341805	581.483022235224	883.601058757201	40.647551373862	567.545740321228	
74	19.196285714286	1060.534956674777	986.539612070690	563.565954065513	1090.471015886796	959.244111326009	325.807212716572	1161.529383297893	1435.598422492769	441.916819254040	1043.817850487051	1503.743365764416	593.538111520008	1041.929540153604	1560.680087500048	406.080048653463	1126.073514332719	1500.874567396052	237.613736228062	1051.764934880270	1187.127104731459	101.243966895399	1151.750669071195	916.949781353028	137.461317902974	953.144345318611	1186.765076333446	733.891640649754	1181.693492763627	1012.284082474101	690.278520243923	1140.168868205351	756.385259019999	321.332707370465	1087.989357303586	673.852695864512	274.727416317173	1160.243312791898	633.547682110304	352.932505437002	1180.923726953372	518.179622846988	365.148061809527	1142.987886992767	408.385218797305	378.024183039452	1098.478488421238	333.786576579133	290.541702233526	1120.286901763376	282.627425023917	380.806222801376	1006.063390634233	49.635491999417	369.776163693910	1096.457214269190	27.464150905989	311.187376399743	1191.589871309015	89.673681891411	360.188524354071	1300.084174337326	45.025788079223	364.713357433614	1060.540327027542	753.802530306440	603.756095215121	963.309604351324	683.621556104893	649.748113739999	1052.466101261645	619.173611862047	597.576080338348	1033.948516134054	513.514629081609	630.197538296215	946.635208387372	426.576884950529	583.465792664024	843.683374315114	402.602031143077	657.250466722267	860.463455065192	314.876811444606	576.517873966197	640.663736718933	187.931879370472	534.689786440958	688.493351226612	109.519823498241	596.910447539029	812.835445414251	113.268690683099	583.944297573157	879.219574926733	40.005440502142	568.351490643080	
